<svg id="Layer_1" data-name="Layer 1" xmlns="http://www.w3.org/2000/svg" viewBox="0 0 887.43 440.04"><defs><style>.cls-1{fill:#e55e0e;}.cls-2{fill:#4bbab5;}</style></defs><path class="cls-1" d="M219.67,575.52q-3-11-6.19-21.95L233,509.31a3.85,3.85,0,0,1,7.43,0q11.34,24.44,11.33,48.51a116.81,116.81,0,0,1-3.36,29A192.32,192.32,0,0,1,240,612q-3.18,7.78-7.08,15.57a118,118,0,0,1-8.85,14.87q-19.47,28-49.93,39.3-7.78,2.47-14.86,4.08a63,63,0,0,1-13.81,1.59,44.9,44.9,0,0,1-11.86-1.59,84.82,84.82,0,0,1-11.51-4.08v.36q-11.32-5.67-17.52-18.06a83.24,83.24,0,0,1-8-28.32,3.87,3.87,0,0,0-.17-1.24,3.9,3.9,0,0,1-.18-1.24V630.4q0-15.95,8.14-39.3a347.38,347.38,0,0,1,16.11-36.83q10.09-20.17,19.65-36.82l5-8.85a3.81,3.81,0,0,1,2.47-1.94,3.39,3.39,0,0,1,3.19.53l5,2.83h.35l28,18.41a4.26,4.26,0,0,1,1.59,2.3,4,4,0,0,1-.52,3.37q-5.68,9.92-11,19.64t-11,19.65q-1.77,3.9-6,1.42l-21.6-14.16q-4.6,9.21-8.68,19.12T119,600l.35-.36q-.7,2.49-1.59,5a15.66,15.66,0,0,0-.89,5.31q0,11.34,15.23,18.41a95.68,95.68,0,0,0,10.44,1.42c3.19.24,6.31.35,9.38.35a88.62,88.62,0,0,0,29.56-4.78,136.24,136.24,0,0,0,23.9-10.8,87.07,87.07,0,0,0,9.21-6q4.26-3.19,8.14-6.73v-1.07A95.18,95.18,0,0,0,219.67,575.52Z" transform="translate(-96.29 -319.98)"/><path class="cls-1" d="M319.69,501.17q4.95-7.08,12.39-7.43A56.6,56.6,0,0,1,347.66,492h3.9q10.26,0,16.81,4.07t4.07,14.69q-4.24,20.53-8.5,28.33a107,107,0,0,1-11,15.75,84.41,84.41,0,0,1-15.23,14.69,139.33,139.33,0,0,1-32.21,17.18,332.49,332.49,0,0,1-37.88,11.86q-4.26,1.05-8.68,2.12t-9,2.13l-13.45,3.54a4.07,4.07,0,0,1-5-5l7.43-43.9a4.59,4.59,0,0,1,3.55-3.55q15.57-1.75,29.56-4.77t27.44-6.91l12-27.26A95.39,95.39,0,0,1,319.69,501.17Z" transform="translate(-96.29 -319.98)"/><path class="cls-1" d="M434.32,430.51c-2.13,1.42-4.49,2.83-7.08,4.25a12.21,12.21,0,0,0-1.24.7,8.66,8.66,0,0,0-1.24,1.07,16.87,16.87,0,0,0,4.6,1.77,36.71,36.71,0,0,1,4.6,1.41,20.19,20.19,0,0,1,7.79,5.31,12.32,12.32,0,0,1,3.19,8.5,16.63,16.63,0,0,1-1.42,7.44Q440,469.8,430.6,477.42a42.85,42.85,0,0,1-20.36,9.38,70.38,70.38,0,0,0-8.85,1.24c-2.84.59-5.78,1.12-8.85,1.59-2.12.24-3.59-.83-4.43-3.18s-.18-4,1.95-5l7.44-3.18c3.31-1.66,6.84-3.25,10.62-4.79a108.22,108.22,0,0,0,10.27-4.77,9.62,9.62,0,0,0-4.08-2.48,17.29,17.29,0,0,1-4.42-2.13q-8.5-5-8.5-13.1,0-5.31,3.9-11.86a84.76,84.76,0,0,1,9-12.39q5.13-5.84,8-9a73.76,73.76,0,0,1,8.67-8.67A54.1,54.1,0,0,1,441,403.25c1.89-.94,3.49-.71,4.78.71a4.48,4.48,0,0,1,.89,5l-7.44,15.58A14,14,0,0,1,434.32,430.51Z" transform="translate(-96.29 -319.98)"/><path class="cls-1" d="M390.77,578.5a15.71,15.71,0,0,1-1.41-7.09,28.06,28.06,0,0,1,3.36-12.92q3.36-6.54,5.84-11.51,4.24-9.19,8.5-17.87a68.56,68.56,0,0,1,10.62-15.76q4.59-4.59,9.2-4.6a17.09,17.09,0,0,1,9,2.48,35.4,35.4,0,0,1,6.54,4.95,57.52,57.52,0,0,1,17,41.78v2.12a98.48,98.48,0,0,1-4.25,26.73A138.52,138.52,0,0,1,446,609.65a153,153,0,0,1-19.65,28.15,137.94,137.94,0,0,1-26.73,23.72,88.17,88.17,0,0,1-32.57,13.63q-7.8,1.41-15.58,2.12t-16.64.71h-3.54q-10.62,0-21.24-1.06c-7.09-.71-14-1.29-20.89-1.77q-5.67-.71-5.67-6a7.15,7.15,0,0,1,3.19-6.37A457.28,457.28,0,0,1,344,636.2q30.43-11.67,59.83-23.72A65.58,65.58,0,0,0,428,595.84v-.35a1,1,0,0,1-.36-.71v-2.12a18.5,18.5,0,0,0-1.06-2.48,45.65,45.65,0,0,1-10.27,1.06q-15.58,0-21.95-7.79v.36A26,26,0,0,1,390.77,578.5Z" transform="translate(-96.29 -319.98)"/><path class="cls-1" d="M657,486q-4.24,20.57-8.5,28.33a105.07,105.07,0,0,1-11,15.74,83.84,83.84,0,0,1-15.22,14.71A139.43,139.43,0,0,1,590.14,562q-11.83,4.54-24.45,8.18l-16.07-14.26,27.45-36.39c2.36-.61,4.72-1.28,7-1.95l7.8-17.7.75-1.69,3.47-7.89a88.77,88.77,0,0,1,7.33-12.57c.24-.41.53-.82.82-1.23a18.23,18.23,0,0,1,5.41-5.27,14.38,14.38,0,0,1,7-2.18,57.45,57.45,0,0,1,15.57-1.75h3.91c6.84,0,12.43,1.34,16.79,4.08S658.7,479,657,486Z" transform="translate(-96.29 -319.98)"/><path class="cls-1" d="M641,449.77v4.43l-26.2,35a4.72,4.72,0,0,1-4.78,1.6,3.36,3.36,0,0,1-3-3.72L599.93,365l26.2-42.85q1.77-2.82,4.6-1.94a4.38,4.38,0,0,1,3.19,4.07L641,439.32v10.45Z" transform="translate(-96.29 -319.98)"/><path class="cls-1" d="M694.22,382.31a4.32,4.32,0,0,1,4.6-1.95,3.77,3.77,0,0,1,3.18,3.72L711.92,531l-26.2,41.07a3.72,3.72,0,0,1-4.25,1.95,3.77,3.77,0,0,1-3.19-3.72l-9.91-146.57Z" transform="translate(-96.29 -319.98)"/><path class="cls-1" d="M687.58,624.41a10.54,10.54,0,0,1,2.48,6.9q0,9.56-6.73,12.39a47.86,47.86,0,0,0-10.45,11.15q-4.77,6.92-9.38,13.46a44.18,44.18,0,0,1-10.62,10.8,35.39,35.39,0,0,1-10.09,5.13,42.93,42.93,0,0,1-12.57,1.59,73.38,73.38,0,0,1-27.61-5q-12.4-4.95-25.14-10.26-11-5-17.88-8.5a57.61,57.61,0,0,1-9-5.31,6.39,6.39,0,0,1-2.12-4.6,5.44,5.44,0,0,1,1.94-4.43,12.41,12.41,0,0,1,4.43-2.3q11.33-2.82,25-5a268.1,268.1,0,0,1,26.73-2.84q12.39-.7,26.2-2.48t25.49-3.54a31,31,0,0,0,14.52-7.08,10.2,10.2,0,0,1,7.43-3.18C683.45,621.4,685.92,622.4,687.58,624.41Z" transform="translate(-96.29 -319.98)"/><path class="cls-1" d="M772.09,723.72c-2.36,3.07-4.73,6-7.08,8.85s-4.73,5.66-7.08,8.49-4.13,5-5.31,6.38-2.3,2.88-3.36,4.42-2.78,3.72-5.14,6.55a3.91,3.91,0,0,1-2.83,1.59,3.81,3.81,0,0,1-3.19-1.24l-23.72-22.3a3.64,3.64,0,0,1-.35-5.31q7.08-8.85,14-17.35t13.64-17.35a4.62,4.62,0,0,1,3-1.77,3.62,3.62,0,0,1,3.37,1.07l23.36,22.3A4.33,4.33,0,0,1,772.09,723.72Z" transform="translate(-96.29 -319.98)"/><path class="cls-1" d="M769.72,601.38a17.25,17.25,0,0,1-2,1.6,50.36,50.36,0,0,1-14.7,6.72c-5.18,1.66-11.44,3.26-18.74,4.81a105.43,105.43,0,0,1-21.25,2.3,39.48,39.48,0,0,1-10.8-1.26q-4.41-1.21-6.21-6.2a52.37,52.37,0,0,1-1.77-6,31.22,31.22,0,0,1-.7-6.76v-1.05c0-3.55-1.54-5.29-4.6-5.29-.93,0-2.36.7-4.25,2.12a48.15,48.15,0,0,0-5.68,7.77,91.72,91.72,0,0,0-4.6,9.2q-2.44,6.38-4.77,13.83a54.64,54.64,0,0,0-2.3,16.27c0,8.74,2.65,15.9,8,21.43s12.78,8.32,22.47,8.32a87.16,87.16,0,0,0,24.77-3.55c2.22-.64,4.4-1.31,6.5-1.92l49.08-53.18Z" transform="translate(-96.29 -319.98)"/><path class="cls-1" d="M978.77,557.48H977c-.23,0-.7.35-1.43,1-1.89.69-3.81,1.48-5.82,2.3s-4,1.71-5.85,2.64c-5.18,2.36-10.45,4.75-15.75,7.08s-11.76,3.78-19.3,4.25a65.84,65.84,0,0,1-11.32-13.1,62.73,62.73,0,0,1-7.8-16.62,109.29,109.29,0,0,1,14.87,2.47c4.95,1.2,9.93,2.48,14.88,3.9,2.35.7,4-.11,4.95-2.47l14.52-44.28a4.06,4.06,0,0,0-.35-3.7,4.38,4.38,0,0,0-2.85-1.95l-5.65-1.42.35.35c-4.71-1.17-9.31-2.24-13.8-3.18A89.93,89.93,0,0,0,921.77,493q-13.11,0-23.38,12.4Q889.92,516,883.87,532a100.7,100.7,0,0,0-6.38,34,8.2,8.2,0,0,0-.35,2.5,50.9,50.9,0,0,0,1.25,11.68,75.7,75.7,0,0,0,3,9.89c-5.82,1.46-11.76,2.68-17.79,3.7l15.46,16.83-32,34.84c.7-.14,1.4-.32,2.1-.46q18.76-4.29,37.9-8.85a314.88,314.88,0,0,0,40.72-12.23A284.09,284.09,0,0,0,964.24,607l2.12-2.12,2.48-5.3c2.12-4.71,4.48-9.87,7.07-15.4a139.68,139.68,0,0,0,6.38-15.75,13.46,13.46,0,0,0,1.42-5.32C983.71,559.34,982.05,557.48,978.77,557.48Z" transform="translate(-96.29 -319.98)"/><path class="cls-2" d="M602,470.8l-43.77,4.34L500,559.62,574.86,631l42.56-4.22-79.68-70.82ZM496.87,559l57.57-83.49-28.31,2.8-63.86,85.07,79.3,70.86,29.49-2.92L496.19,560Z" transform="translate(-96.29 -319.98)"/><path class="cls-2" d="M764,532.21H719.52l72.31,78.33L719.52,688.9h43.69l67.28-79.48Zm31.77,0h-28l66.49,77.18-.78,1L767,688.9h28.74l71.93-78.36Z" transform="translate(-96.29 -319.98)"/></svg>